<?xml-stylesheet type="text/css" href="icon.css" ?>
<svg version="1.1" id="copyright" xmlns="http://www.w3.org/2000/svg" xmlns:xlink="http://www.w3.org/1999/xlink" x="0px" y="0px" width="70px" height="70px" viewBox="0 0 70 70" enable-background="new 0 0 70 70" xml:space="preserve">
	<path class="frame" fill="#1D1D1B" d="M35,67.5C17.1,67.5,2.5,52.9,2.5,35c0-18,14.6-32.5,32.5-32.5c17.9,0,32.5,14.6,32.5,32.5
		C67.5,52.9,52.9,67.5,35,67.5z M66.1,35C66.1,17.8,52.2,3.9,35,3.9C17.8,3.9,3.9,17.8,3.9,35c0,17.2,13.9,31.1,31.1,31.1
		C52.2,66.1,66.1,52.2,66.1,35z"/>
	<path class="icon" d="M35,52.9c-9.9,0-17.9-8-17.9-17.9c0-9.9,8-17.9,17.9-17.9s17.9,8,17.9,17.9C52.9,44.9,44.9,52.9,35,52.9z
		 M51.2,35c0-8.9-7.3-16.2-16.2-16.2c-8.9,0-16.2,7.3-16.2,16.2c0,8.9,7.3,16.2,16.2,16.2C43.9,51.2,51.2,43.9,51.2,35z M44.2,28.9
		L42.7,30c-0.8-1.1-1.9-1.9-3.1-2.5c-1.2-0.6-2.5-0.9-3.9-0.9c-1.6,0-3,0.4-4.3,1.1c-1.3,0.8-2.4,1.8-3.1,3c-0.7,1.3-1.1,2.7-1.1,4.3
		c0,2.4,0.8,4.4,2.4,6c1.6,1.6,3.7,2.4,6.2,2.4c2.7,0,5-1.1,6.9-3.2l1.6,1.2c-1,1.2-2.2,2.2-3.7,2.9c-1.5,0.7-3.1,1-4.9,1
		c-3.4,0-6.1-1.1-8.1-3.4c-1.7-1.9-2.5-4.2-2.5-7c0-2.9,1-5.3,3-7.2c2-1.9,4.5-2.9,7.5-2.9c1.8,0,3.5,0.4,5,1.1
		C42.1,26.5,43.3,27.6,44.2,28.9z"/>
</svg>
