<?xml-stylesheet type="text/css" href="icon.css" ?>
<svg version="1.1" id="intellectual-property" xmlns="http://www.w3.org/2000/svg" xmlns:xlink="http://www.w3.org/1999/xlink" x="0px" y="0px" width="70px" height="70px" viewBox="0 0 70 70" enable-background="new 0 0 70 70" xml:space="preserve">
	<path class="frame" fill="#1D1D1B" d="M35,67.5C17.1,67.5,2.5,52.9,2.5,35C2.5,17.1,17.1,2.5,35,2.5c17.9,0,32.5,14.6,32.5,32.5
		C67.5,52.9,52.9,67.5,35,67.5z M66.1,35C66.1,17.8,52.2,3.9,35,3.9C17.8,3.9,3.9,17.8,3.9,35c0,17.2,13.9,31.1,31.1,31.1
		C52.2,66.1,66.1,52.2,66.1,35z"/>
	<path class="icon" transform="translate(0,-1004.3622)" d="M41.3,1045.1c0.6-1.7,1.5-3.2,2.5-4.6c1.8-2.6,3.7-5.1,3.7-8.9
		c0-6.8-5.6-12.4-12.5-12.4c-6.9,0-12.5,5.6-12.5,12.4c0,3.7,1.9,6.3,3.6,8.9c0.7,1.1,1.5,2.2,2.1,3.5l0.7,1.7
		c0.4,1.3,0.7,2.8,0.7,4.6v5.6c0,0.4,0.3,0.7,0.7,0.7h9.4c0.4,0,0.7-0.3,0.7-0.7v-5.6c0-1.8,0.3-3.3,0.7-4.7 M35,1020.7
		c6.1,0,11.1,4.9,11.1,11c0,3.3-1.7,5.5-3.4,8.1c-1.7,2.5-3.3,5.5-3.5,9.9h-3.5v-7.6c0-0.4-0.3-0.7-0.7-0.7c-0.4,0-0.7,0.3-0.7,0.7
		c0,0,0,0,0,0v7.6h-3.5c-0.2-4.4-1.8-7.4-3.5-9.9c-1.8-2.6-3.4-4.8-3.4-8.1C23.9,1025.6,28.9,1020.7,35,1020.7z M33.6,1023.5
		c-0.4,0-0.7,0.3-0.7,0.7v1.1c-0.4,0.1-0.7,0.3-1.1,0.4l-0.8-0.8c-0.3-0.3-0.7-0.3-1,0l-1.9,1.9c-0.3,0.3-0.3,0.7,0,1l0.8,0.8
		c-0.2,0.3-0.3,0.7-0.4,1.1h-1.1c-0.4,0-0.7,0.3-0.7,0.7v2.7c0,0.4,0.3,0.7,0.7,0.7h1.1c0.1,0.4,0.3,0.8,0.4,1.1l-0.8,0.8
		c-0.3,0.3-0.3,0.7,0,1l1.9,1.9c0.3,0.3,0.7,0.3,1,0l0.8-0.8c0.3,0.2,0.7,0.3,1.1,0.4v1.1c0,0.4,0.3,0.7,0.7,0.7h2.7
		c0.4,0,0.7-0.3,0.7-0.7v-1.1c0.4-0.1,0.7-0.3,1.1-0.4l0.8,0.8c0.3,0.3,0.7,0.3,1,0l1.9-1.9c0.3-0.3,0.3-0.7,0-1l-0.8-0.8
		c0.2-0.3,0.3-0.7,0.4-1.1h1.1c0.4,0,0.7-0.3,0.7-0.7v-2.7c0-0.4-0.3-0.7-0.7-0.7h-1.1c-0.1-0.4-0.3-0.7-0.4-1.1l0.8-0.8
		c0.3-0.3,0.3-0.7,0-1l-1.9-1.9c-0.3-0.3-0.7-0.3-1,0l-0.8,0.8c-0.3-0.2-0.7-0.3-1.1-0.4v-1.1c0-0.4-0.3-0.7-0.7-0.7H33.6z
		 M34.3,1024.8h1.4v0.9c0,0.3,0.2,0.6,0.6,0.7c0.6,0.2,1.2,0.4,1.7,0.7c0.3,0.1,0.6,0.1,0.8-0.1l0.6-0.6l1,1l-0.6,0.6
		c-0.3,0.2-0.3,0.6-0.1,0.8c0.3,0.5,0.6,1.1,0.7,1.7c0.1,0.3,0.4,0.6,0.7,0.6h0.9v1.4h-0.9c-0.3,0-0.6,0.2-0.7,0.6
		c-0.1,0.6-0.4,1.2-0.7,1.7c-0.1,0.3-0.1,0.6,0.1,0.8l0.6,0.6l-1,1l-0.6-0.6c-0.2-0.3-0.6-0.3-0.8-0.1c-0.5,0.3-1.1,0.6-1.7,0.7
		c-0.3,0.1-0.6,0.4-0.6,0.7v0.9h-1.4v-0.9c0-0.3-0.2-0.6-0.5-0.7c-0.6-0.2-1.2-0.4-1.7-0.7c-0.3-0.1-0.6-0.1-0.9,0.1l-0.6,0.6l-1-1
		l0.6-0.6c0.2-0.2,0.3-0.6,0.1-0.8c-0.3-0.5-0.6-1.1-0.7-1.7c-0.1-0.3-0.3-0.6-0.7-0.6h-0.9v-1.4h0.9c0.3,0,0.6-0.2,0.7-0.6
		c0.1-0.6,0.4-1.2,0.7-1.7c0.2-0.3,0.1-0.6-0.1-0.8l-0.6-0.6l1-1l0.6,0.6c0.2,0.3,0.6,0.3,0.9,0.1c0.5-0.3,1.1-0.6,1.7-0.7
		c0.3-0.1,0.5-0.4,0.5-0.7V1024.8L34.3,1024.8z M35,1028.3c-1.9,0-3.5,1.6-3.5,3.5c0,1.9,1.6,3.4,3.5,3.4c1.9,0,3.5-1.6,3.5-3.4
		C38.5,1029.9,36.9,1028.3,35,1028.3z M35,1029.7c1.1,0,2.1,0.9,2.1,2.1c0,1.1-0.9,2.1-2.1,2.1c-1.1,0-2.1-0.9-2.1-2.1
		C32.9,1030.6,33.9,1029.7,35,1029.7z M31,1051h3.9c0.1,0,0.2,0,0.2,0H39v4.2h-8v-1.4h6.8v-1.4H31V1051z M31.5,1058.1
		c-0.4,0-0.7,0.3-0.6,0.7c0,0.4,0.3,0.7,0.7,0.7h6.9c0.4,0,0.7-0.3,0.7-0.7s-0.3-0.7-0.7-0.7c0,0,0,0,0,0H31.5
		C31.5,1058.1,31.5,1058.1,31.5,1058.1z"/>
</svg>
