<?xml-stylesheet type="text/css" href="icon.css" ?>
<svg version="1.1" id="international-trade" xmlns="http://www.w3.org/2000/svg" xmlns:xlink="http://www.w3.org/1999/xlink" x="0px" y="0px" width="70px" height="70px" viewBox="0 0 70 70" enable-background="new 0 0 70 70" xml:space="preserve">
	<path class="frame" fill="#1D1D1B" d="M35,67.5C17.1,67.5,2.5,52.9,2.5,35c0-18,14.6-32.5,32.5-32.5c17.9,0,32.5,14.5,32.5,32.5
		C67.5,52.9,52.9,67.5,35,67.5z M66.1,35C66.1,17.8,52.2,3.9,35,3.9C17.8,3.9,3.9,17.8,3.9,35c0,17.2,13.9,31.1,31.1,31.1
		C52.2,66.1,66.1,52.2,66.1,35z"/>
	<path class="icon" d="M52.9,34.3c0.4,0,0.7,0.3,0.7,0.7c0,1.7-0.2,3.4-0.7,5c-1,3.5-3,6.8-5.8,9.1c-2.9,2.4-6.4,4-10.2,4.4
		c-3.8,0.4-7.6-0.4-11-2.2c-3.2-1.8-5.8-4.5-7.5-7.7c-1.8-3.4-2.4-7.3-1.9-11.2c0.5-3.7,2.2-7.1,4.6-9.9c2.5-2.7,5.7-4.7,9.3-5.6
		c3.7-0.9,7.7-0.7,11.2,0.7c3.4,1.4,6.4,3.7,8.5,6.8c2.1,3.1,3.3,6.8,3.3,10.5c0,0.4-0.3,0.7-0.7,0.7s-0.7-0.3-0.7-0.7
		c0-0.7-0.1-1.5-0.1-2.3c0,0,0-0.1,0-0.1c0,0.1,0,0.1,0,0c0,0,0-0.1,0-0.2c0-0.1,0-0.2-0.1-0.3c0-0.2-0.1-0.4-0.1-0.7
		c-0.1-0.4-0.2-0.9-0.3-1.3c-0.1-0.4-0.3-0.9-0.4-1.3c0-0.1-0.1-0.2-0.1-0.4c0,0,0-0.1-0.1-0.1c0,0-0.1-0.2,0,0
		c-0.1-0.2-0.2-0.4-0.3-0.6c-0.4-0.8-0.8-1.6-1.3-2.3c-0.1-0.2-0.3-0.4-0.4-0.6c-0.1-0.1-0.1-0.2-0.2-0.3c-0.1-0.1-0.1-0.1-0.1-0.1
		c0.1,0.1,0,0,0,0c-0.3-0.3-0.6-0.7-0.9-1c-0.6-0.7-1.2-1.3-1.9-1.8c-0.1-0.1-0.2-0.2-0.3-0.2c0.2,0.1,0,0,0,0
		c-0.1,0-0.1-0.1-0.1-0.1c-0.2-0.1-0.4-0.2-0.5-0.4c-0.4-0.3-0.7-0.5-1.1-0.7c-0.4-0.2-0.8-0.4-1.2-0.6c-0.2-0.1-0.4-0.2-0.6-0.3
		c0,0-0.1,0-0.1-0.1c-0.2-0.1,0.1,0.1,0,0c-0.1,0-0.2-0.1-0.3-0.1c-0.9-0.3-1.7-0.6-2.6-0.8c-0.5-0.1-0.9-0.2-1.4-0.2
		c0,0-0.1,0-0.1,0c0.1,0,0.1,0,0,0c-0.1,0-0.1,0-0.2,0c-0.1,0-0.2,0-0.3,0c-0.2,0-0.4,0-0.7,0c-0.9,0-1.9,0-2.8,0c-0.1,0-0.3,0-0.4,0
		c0,0-0.1,0-0.2,0c0,0-0.2,0,0,0c-0.2,0-0.4,0.1-0.7,0.1c-0.4,0.1-0.9,0.2-1.3,0.3c-0.4,0.1-0.9,0.2-1.3,0.4
		c-0.2,0.1-0.4,0.2-0.7,0.2c-0.1,0.1-0.2,0.1-0.3,0.1c0,0-0.1,0-0.1,0.1c0.2-0.1,0,0,0,0c-0.8,0.4-1.6,0.8-2.4,1.2
		c-0.4,0.2-0.8,0.5-1.1,0.8c-0.1,0.1-0.2,0.1-0.3,0.2c0.1-0.1,0,0,0,0c0,0-0.1,0.1-0.1,0.1c-0.2,0.1-0.3,0.3-0.5,0.4
		c-0.7,0.6-1.3,1.2-1.9,1.9c-0.1,0.2-0.3,0.4-0.4,0.5c0,0.1-0.1,0.1-0.1,0.1c-0.1,0.2,0.1-0.1,0,0c-0.1,0.1-0.1,0.2-0.2,0.3
		c-0.3,0.4-0.5,0.7-0.7,1.1c-0.5,0.8-0.9,1.6-1.3,2.4c0,0,0,0.1,0,0.1c0-0.1,0-0.1,0,0c0,0.1,0,0.1-0.1,0.2c0,0.1-0.1,0.2-0.1,0.3
		c-0.1,0.2-0.2,0.4-0.2,0.6c-0.2,0.4-0.3,0.9-0.4,1.3c-0.1,0.4-0.2,0.9-0.3,1.3c0,0.1,0,0.3-0.1,0.4c0,0.1,0,0.1,0,0.2c0,0,0,0.2,0,0
		c0,0.2-0.1,0.4-0.1,0.7c-0.1,0.9-0.1,1.9-0.1,2.8c0,0.3,0,0.5,0.1,0.7c0,0.1,0,0.2,0,0.3c0,0.1,0,0.1,0,0.2c0-0.2,0,0,0,0
		c0.1,0.5,0.2,0.9,0.3,1.4c0.2,0.9,0.5,1.7,0.8,2.6c0,0.1,0.1,0.2,0.1,0.3c-0.1-0.1,0,0,0,0.1c0,0,0,0.1,0.1,0.1
		c0.1,0.2,0.2,0.4,0.3,0.6c0.2,0.4,0.4,0.8,0.6,1.2c0.2,0.4,0.5,0.8,0.7,1.1c0.1,0.2,0.3,0.4,0.4,0.5c0,0,0.1,0.1,0.1,0.1
		c0.1,0.2-0.1-0.1,0,0c0.1,0.1,0.1,0.2,0.2,0.3c0.6,0.7,1.2,1.3,1.8,1.9c0.3,0.3,0.7,0.6,1,0.9c0,0,0.1,0,0.1,0.1
		c-0.1-0.1-0.1-0.1,0,0c0,0,0.1,0.1,0.1,0.1c0.1,0.1,0.2,0.1,0.3,0.2c0.2,0.1,0.3,0.3,0.5,0.4c0.7,0.5,1.5,1,2.3,1.3
		c0.1,0,0.2,0.1,0.3,0.1c0,0,0.1,0.1,0.1,0.1c0,0,0.2,0.1,0,0c0.2,0.1,0.4,0.2,0.6,0.2c0.4,0.2,0.9,0.3,1.3,0.4
		c0.4,0.1,0.9,0.3,1.3,0.3c0.2,0.1,0.5,0.1,0.7,0.1c0.1,0,0.2,0,0.3,0c0,0,0.1,0,0.2,0c-0.2,0,0,0,0,0c0.9,0.1,1.9,0.1,2.8,0.1
		c0.5,0,0.9-0.1,1.4-0.1c0.1,0,0.3,0,0.4,0c-0.2,0,0,0,0,0c0.1,0,0.1,0,0.2,0c0.2,0,0.4-0.1,0.6-0.1c0.9-0.2,1.8-0.4,2.7-0.7
		c0.2-0.1,0.4-0.2,0.6-0.3c0.1,0,0.1-0.1,0.1-0.1c0.2-0.1-0.1,0.1,0,0c0.1,0,0.2-0.1,0.3-0.1c0.4-0.2,0.8-0.4,1.2-0.6
		c0.8-0.4,1.5-0.9,2.3-1.5c0,0,0.1,0,0.1-0.1c-0.1,0.1-0.1,0.1,0,0c0,0,0.1-0.1,0.1-0.1c0.1-0.1,0.2-0.1,0.3-0.2
		c0.1-0.1,0.3-0.3,0.5-0.4c0.4-0.3,0.7-0.6,1-0.9c0.3-0.3,0.6-0.7,0.9-1c0.1-0.1,0.1-0.2,0.2-0.3c0.1,0,0.1-0.1,0.1-0.1
		c0,0,0.1-0.2,0,0c0.1-0.2,0.3-0.3,0.4-0.5c0.5-0.7,1-1.5,1.4-2.3c0.1-0.2,0.2-0.4,0.3-0.6c0-0.1,0.1-0.2,0.1-0.3c0,0,0-0.1,0.1-0.2
		c-0.1,0.2,0,0,0,0c0.2-0.4,0.3-0.9,0.5-1.3c0.3-0.9,0.5-1.8,0.7-2.7c0-0.1,0-0.3,0-0.4c0,0.2,0,0,0,0c0-0.1,0-0.1,0-0.2
		c0-0.2,0.1-0.4,0.1-0.7c0-0.5,0.1-1,0.1-1.4C52.2,34.6,52.5,34.3,52.9,34.3z M43.8,34.2c0.4,0,0.7,0.3,0.7,0.7c0,1,0,2.1-0.1,3.1
		c-0.2,2.2-0.6,4.4-1.2,6.6c-0.6,1.8-1.3,3.5-2.3,5.1C40,51,39,52.2,37.6,52.9c-1.2,0.7-2.6,0.9-3.9,0.5c-1.4-0.4-2.6-1.3-3.5-2.3
		c-1.2-1.4-2-3-2.7-4.6c-0.8-1.9-1.3-3.9-1.6-6c-0.4-2.4-0.5-4.8-0.4-7.2c0.1-2.3,0.4-4.6,1-6.8c0.5-1.9,1.1-3.7,2.1-5.4
		c1.4-2.4,3.7-5,6.8-4.7c3.1,0.3,5.3,3.1,6.6,5.8c1.8,3.9,2.5,8.4,2.5,12.7c0,0.4-0.3,0.7-0.7,0.7s-0.7-0.3-0.7-0.7
		c0-1.2-0.1-2.3-0.2-3.5c0-0.3-0.1-0.6-0.1-0.9c0-0.1,0-0.1-0.1-0.2c0-0.2,0.1,0.1,0-0.1c0-0.1,0-0.3-0.1-0.4c-0.1-0.5-0.2-1-0.3-1.6
		c-0.2-1-0.4-2-0.8-3c-0.2-0.5-0.3-0.9-0.5-1.4c-0.1-0.1-0.1-0.2-0.1-0.3c-0.1-0.2,0.1,0.1,0,0c0-0.1-0.1-0.1-0.1-0.2
		c-0.1-0.2-0.2-0.4-0.3-0.6c-0.3-0.8-0.8-1.5-1.3-2.2c-0.1-0.1-0.1-0.2-0.2-0.3c0,0,0-0.1-0.1-0.1c-0.1-0.1,0.1,0.1,0,0
		c-0.1-0.1-0.2-0.3-0.3-0.4c-0.2-0.3-0.5-0.5-0.8-0.8c-0.1-0.1-0.3-0.2-0.4-0.3c0.2,0.2,0,0-0.1-0.1c-0.1,0-0.1-0.1-0.2-0.1
		c-0.3-0.2-0.5-0.3-0.8-0.4c-0.2-0.1,0.1,0,0,0c0,0-0.1,0-0.1-0.1c-0.1,0-0.1,0-0.2-0.1c-0.1,0-0.3-0.1-0.4-0.1c-0.1,0-0.2,0-0.3,0
		c0,0-0.1,0-0.1,0c-0.1,0,0.2,0,0,0c-0.1,0-0.3,0-0.4,0c-0.2,0-0.3,0-0.5,0c-0.1,0-0.2,0-0.2,0c0.3,0,0,0-0.1,0
		c-0.3,0.1-0.6,0.1-0.9,0.3c0,0-0.2,0.1,0,0c0,0-0.1,0-0.1,0c-0.1,0-0.1,0.1-0.2,0.1c-0.1,0.1-0.3,0.2-0.4,0.2
		c-0.1,0.1-0.3,0.2-0.4,0.3c0,0-0.1,0.1-0.1,0.1c-0.1,0.1,0.1-0.1,0,0c-0.1,0.1-0.1,0.1-0.2,0.2c-0.3,0.2-0.5,0.5-0.8,0.7
		c-0.1,0.1-0.3,0.3-0.4,0.4c-0.1,0.1-0.1,0.1-0.2,0.2c0.1-0.2-0.1,0.1-0.1,0.1c-0.5,0.7-0.9,1.4-1.3,2.1c-0.1,0.2-0.2,0.4-0.3,0.6
		c0,0.1-0.1,0.2-0.1,0.3c0,0-0.1,0.1-0.1,0.1c0.1-0.2,0,0,0,0c-0.2,0.4-0.3,0.9-0.5,1.3c-0.3,1-0.6,2-0.8,3c-0.1,0.5-0.2,1.1-0.3,1.6
		c0,0.1,0,0.3-0.1,0.5c0,0.1,0,0.1,0,0.2c0-0.2,0,0.1,0,0.1c0,0.3-0.1,0.5-0.1,0.8c-0.1,1.2-0.2,2.4-0.2,3.5c0,1.2,0,2.4,0.2,3.6
		c0,0.3,0.1,0.6,0.1,0.9c0,0.1,0,0.1,0,0.2c0,0,0,0.3,0,0.1c0,0.1,0,0.3,0.1,0.4c0.1,0.5,0.2,1.1,0.3,1.6c0.2,1,0.5,2,0.8,3
		c0.2,0.5,0.3,1,0.5,1.4c0,0.1,0.1,0.3,0.1,0.4c0.1,0.2-0.1-0.2,0,0c0,0.1,0,0.1,0.1,0.2c0.1,0.2,0.2,0.4,0.3,0.6
		c0.4,0.8,0.8,1.5,1.3,2.2c0.1,0.1,0.1,0.2,0.2,0.3c0,0.1,0,0.1,0.1,0.1c-0.1-0.2,0-0.1,0,0c0.1,0.1,0.2,0.3,0.3,0.4
		c0.2,0.3,0.5,0.6,0.7,0.8c0.1,0.1,0.2,0.1,0.2,0.2c0.1,0,0.3,0.2,0.1,0.1c0.1,0.1,0.3,0.2,0.4,0.3c0.3,0.2,0.5,0.3,0.8,0.4
		c0.1,0.1-0.2-0.1,0,0c0,0,0.1,0,0.1,0.1c0.1,0,0.1,0,0.2,0.1c0.1,0,0.3,0.1,0.4,0.1c0.1,0,0.2,0,0.2,0c0,0,0.1,0,0.1,0
		c-0.2,0-0.1,0,0,0c0.1,0,0.3,0,0.4,0c0.2,0,0.3,0,0.5,0c0,0,0.1,0,0.1,0c-0.2,0.1-0.1,0,0,0c0.1,0,0.1,0,0.2,0
		c0.3-0.1,0.6-0.2,0.9-0.3c-0.3,0.1,0.1,0,0.1,0c0.1-0.1,0.1-0.1,0.2-0.1c0.1-0.1,0.3-0.1,0.4-0.2c0.1-0.1,0.3-0.2,0.4-0.3
		c0.1-0.1-0.1,0.1,0,0c0.1,0,0.1-0.1,0.1-0.1c0.1-0.1,0.1-0.1,0.2-0.2c0.3-0.2,0.5-0.5,0.8-0.7c0.1-0.2,0.3-0.3,0.4-0.5
		c0,0,0.1-0.1,0.1-0.1c-0.1,0.1,0,0,0,0c0.1-0.1,0.1-0.2,0.2-0.2c0.5-0.7,0.9-1.4,1.3-2.2c0.1-0.2,0.2-0.4,0.3-0.7c0,0,0-0.1,0.1-0.2
		c0,0,0.1-0.2,0,0c0.1-0.1,0.1-0.2,0.1-0.3c0.2-0.5,0.3-0.9,0.5-1.4c0.3-1,0.6-2,0.8-3c0.1-0.5,0.2-1.1,0.3-1.6
		c0-0.2,0.1-0.3,0.1-0.5c0.1-0.2,0,0.2,0-0.1c0-0.1,0-0.1,0.1-0.2c0-0.3,0.1-0.6,0.1-0.8c0.1-1.2,0.2-2.4,0.2-3.5
		C43.1,34.5,43.4,34.2,43.8,34.2z M50.5,25.6c0,0.4-0.3,0.7-0.7,0.7H20.2c-0.4,0-0.7-0.3-0.7-0.7c0-0.4,0.3-0.7,0.7-0.7h29.6
		C50.2,24.9,50.5,25.2,50.5,25.6z M50.5,44.5c0,0.4-0.3,0.7-0.7,0.7H20.2c-0.4,0-0.7-0.3-0.7-0.7s0.3-0.7,0.7-0.7h29.6
		C50.2,43.8,50.5,44.1,50.5,44.5z M53.6,35c0,0.4-0.3,0.7-0.7,0.7H35.7v-1.4h17.1C53.2,34.4,53.6,34.7,53.6,35z M34.3,34.4v1.4H17.1
		c-0.4,0-0.7-0.3-0.7-0.7c0-0.4,0.3-0.7,0.7-0.7H34.3z M34.3,35.8h1.4v17.1c0,0.4-0.3,0.7-0.7,0.7c-0.4,0-0.7-0.3-0.7-0.7V35.8z
		 M35.7,17.1v17.2h-1.4V17.1c0-0.4,0.3-0.7,0.7-0.7C35.4,16.4,35.7,16.7,35.7,17.1z M34.3,34.4v1.4h1.4v-1.4H34.3z"/>
</svg>
